<svg id="Layer_1" data-name="Layer 1" xmlns="http://www.w3.org/2000/svg" viewBox="0 0 26.37 13.78"><defs><style>.cls-1{fill:#00c8e6;}</style></defs><title>3m</title><path class="cls-1" d="M1902.13,510.28l0.73,0.08a5.92,5.92,0,0,1,2.66.9,3.67,3.67,0,0,1,1.46,2,0.21,0.21,0,0,0,.06.11v-0.13c0-.83,0-1.65,0-2.48,0-.09,0-0.13.12-0.13h5.37l1.88,7.65h0l0.22-.89,1.18-4.81c0.15-.61.3-1.22,0.45-1.84a0.12,0.12,0,0,1,.14-0.11h5.32c0.12,0,.13,0,0.13.14q0,2.77,0,5.55,0,3.67,0,7.33c0,0.16,0,.17-0.17.17h-3.59v-8.2h0l-0.15.62-1.19,4.82c-0.22.88-.44,1.76-0.65,2.64a0.12,0.12,0,0,1-.14.11h-3.07a0.12,0.12,0,0,1-.14-0.11q-1-4-2-7.95a0.26,0.26,0,0,0-.06-0.12v8.16h-3.68v-2.46h0a3.83,3.83,0,0,1-1.73,1.87,6.6,6.6,0,0,1-2.48.8,10.11,10.11,0,0,1-2.64,0,5.45,5.45,0,0,1-3-1.26,4.7,4.7,0,0,1-1.46-2.5c-0.09-.38-0.12-0.77-0.18-1.16,0,0,0-.07,0-0.11v-0.4h3.81c0,0.23,0,.46.08,0.68a2,2,0,0,0,.9,1.43,2.2,2.2,0,0,0,1.42.29,1.4,1.4,0,0,0,1.35-1.41,1.18,1.18,0,0,0-.53-1.08,1.66,1.66,0,0,0-.89-0.3c-0.38,0-.76,0-1.14,0h-0.13v-2.55h0.07c0.43,0,.85,0,1.28,0a3.55,3.55,0,0,0,.69-0.08,1,1,0,0,0,.81-0.7,1.1,1.1,0,0,0-.63-1.37,2.35,2.35,0,0,0-1.81,0,1.55,1.55,0,0,0-1.06,1.39c0,0.1-.06.1-0.14,0.1H1896c0-.28.05-0.55,0.1-0.82a4.09,4.09,0,0,1,1.42-2.52,5.7,5.7,0,0,1,3-1.21l0.67-.08h1Zm4.92,7.92v-3.14a2.63,2.63,0,0,1-1.5,1.66A3.24,3.24,0,0,1,1907.05,518.2Z" transform="translate(-1895.52 -510.28)"/></svg>