<svg id="Layer_1" data-name="Layer 1" xmlns="http://www.w3.org/2000/svg" viewBox="0 0 18.26 23.26"><defs><style>.cls-1{fill:#00c8e6;}</style></defs><title>fire</title><path class="cls-1" d="M2009.5,237.12v1.46a0.88,0.88,0,0,0,.88.88h7a0.88,0.88,0,0,0,.88-0.88V224.64a1.52,1.52,0,0,0-.76-1.31l-1.9-1.09v-1.74l1.91-.32,3.15,1.71a0.47,0.47,0,0,0,.53-0.75l-3-2.7-0.17-.15-0.43,0-3.14-.15a1.89,1.89,0,1,0-2.36,2v2.11l-1.9,1.09a1.52,1.52,0,0,0-.76,1.31v12.48Zm6.32-12.57a0.53,0.53,0,0,1,1.05,0V234a0.53,0.53,0,1,1-1.05,0v-9.4Zm0,11.32a0.53,0.53,0,0,1,1.05,0v1.34a0.53,0.53,0,1,1-1.05,0v-1.34Zm-4-17.58a0.81,0.81,0,0,1,1.62,0s0,0,0,0a0.81,0.81,0,0,1-.69.8h-0.12A0.82,0.82,0,0,1,2011.83,218.29Z" transform="translate(-2003.13 -216.2)"/><path class="cls-1" d="M2003.31,220.3l4.86-.49a0.34,0.34,0,0,0,.26-0.17l0.22-.4h1a0.18,0.18,0,0,0,.18-0.18v-1.63a0.18,0.18,0,0,0-.18-0.18h-1l-0.22-.4a0.34,0.34,0,0,0-.26-0.17l-4.86-.49a0.16,0.16,0,0,0-.17.16v3.78A0.16,0.16,0,0,0,2003.31,220.3Z" transform="translate(-2003.13 -216.2)"/></svg>