<?xml version="1.0" encoding="utf-8"?>
<!-- Generator: Adobe Illustrator 21.0.0, SVG Export Plug-In . SVG Version: 6.00 Build 0)  -->
<svg version="1.1" id="Layer_1" xmlns="http://www.w3.org/2000/svg" xmlns:xlink="http://www.w3.org/1999/xlink" x="0px" y="0px"
	 viewBox="0 0 26.4 13.8" style="enable-background:new 0 0 26.4 13.8;" xml:space="preserve">
<style type="text/css">
	.st0{fill:#FF0000;}
</style>
<title>3m</title>
<path class="st0" d="M6.6,0l0.7,0.1C8.3,0.2,9.2,0.5,10,1c0.7,0.5,1.2,1.2,1.5,2c0,0,0,0.1,0.1,0.1V3c0-0.8,0-1.6,0-2.5
	c0-0.1,0-0.1,0.1-0.1H17L18.9,8l0,0l0.2-0.9l1.2-4.8c0.2-0.6,0.3-1.2,0.4-1.8c0-0.1,0.1-0.1,0.1-0.1c0,0,0,0,0,0h5.3
	c0.1,0,0.1,0,0.1,0.1c0,1.8,0,3.7,0,5.6c0,2.4,0,4.9,0,7.3c0,0.2,0,0.2-0.2,0.2h-3.6V5.3l0,0L22.4,6l-1.2,4.8
	c-0.2,0.9-0.4,1.8-0.7,2.6c0,0.1-0.1,0.1-0.1,0.1c0,0,0,0,0,0h-3.1c-0.1,0-0.1,0-0.1-0.1c0,0,0,0,0,0c-0.7-2.7-1.3-5.3-2-8
	c0,0,0-0.1-0.1-0.1v8.2h-3.7V11l0,0c-0.3,0.8-1,1.5-1.7,1.9c-0.8,0.4-1.6,0.7-2.5,0.8c-0.9,0.1-1.8,0.1-2.6,0
	c-1.1-0.1-2.2-0.5-3-1.3c-0.7-0.7-1.2-1.5-1.5-2.5C0.1,9.6,0.1,9.2,0,8.8c0,0,0-0.1,0-0.1V8.3h3.8c0,0.2,0,0.5,0.1,0.7
	c0.1,0.6,0.4,1.1,0.9,1.4c0.4,0.3,0.9,0.4,1.4,0.3c0.8,0,1.4-0.7,1.3-1.4c0-0.4-0.2-0.8-0.5-1.1C6.8,8,6.5,7.9,6.1,7.9
	c-0.4,0-0.8,0-1.1,0H4.9V5.3h0.1c0.4,0,0.8,0,1.3,0c0.2,0,0.5,0,0.7-0.1c0.4-0.1,0.7-0.3,0.8-0.7C7.9,4,7.6,3.4,7.1,3.2
	C6.5,3,5.9,3,5.3,3.2C4.7,3.4,4.3,4,4.2,4.6c0,0.1-0.1,0.1-0.1,0.1H0.5c0-0.3,0.1-0.5,0.1-0.8C0.7,2.9,1.2,2,2,1.3
	c0.9-0.7,1.9-1.1,3-1.2l0.7-0.1L6.6,0L6.6,0z M11.5,7.9V4.8c-0.2,0.7-0.8,1.4-1.5,1.7C10.7,6.8,11.2,7.3,11.5,7.9z"/>
</svg>
