<svg id="Layer_1" data-name="Layer 1" xmlns="http://www.w3.org/2000/svg" viewBox="0 0 25.43 16.73"><defs><style>.cls-1,.cls-2{fill:#00c8e6;}.cls-1{fill-rule:evenodd;}</style></defs><title>ambulance</title><path class="cls-1" d="M2001.46,271.15h14.48a0.76,0.76,0,0,1,.78.73v0.72h3.16a1.6,1.6,0,0,1,1.22.73l2.61,4.4a3.69,3.69,0,0,1,2.4,3.38v2.27a0.76,0.76,0,0,1-.78.73H2025a4,4,0,0,0,0-.61,4.52,4.52,0,0,0-9,0,4,4,0,0,0,0,.61h-5.27a4,4,0,0,0,0-.61,4.38,4.38,0,0,0-4.51-4.23,4.44,4.44,0,0,0-4.46,3.56h-0.42a0.76,0.76,0,0,1-.78-0.73V271.88a0.76,0.76,0,0,1,.78-0.73h0Zm19.08,14.14a1.78,1.78,0,1,0-1.89-1.77,1.84,1.84,0,0,0,1.89,1.77h0Zm-14.2,0a1.78,1.78,0,1,0-1.89-1.77,1.84,1.84,0,0,0,1.89,1.77h0Zm14.2,1.58a3.36,3.36,0,1,0-3.57-3.35,3.47,3.47,0,0,0,3.57,3.35h0Zm-14.2,0a3.36,3.36,0,1,0-3.57-3.35,3.47,3.47,0,0,0,3.57,3.35h0Zm16.37-9.3-2.29-3.87a0.87,0.87,0,0,0-.53-0.36h-3.16v4.19h5.47a4.2,4.2,0,0,1,.51,0h0Zm-15.27-4.65v1.92h-2v1.79h2v1.92h1.91v-1.92h2v-1.79h-2v-1.92h-1.91Z" transform="translate(-2000.68 -270.14)"/><path class="cls-1" d="M2018.51,270.78h0a0.76,0.76,0,0,1,.78.74v0.64h-1.57v-0.64A0.76,0.76,0,0,1,2018.51,270.78Z" transform="translate(-2000.68 -270.14)"/><path class="cls-2" d="M2018.51,270.92h0v-0.29h0v0.29h0Zm0.94,0.59h-0.31v-0.28l0,0,0,0,0,0,0,0,0,0,0,0,0,0,0,0,0,0,0,0,0,0h-0.33v-0.29h0.32l0,0,0,0,0,0,0,0,0,0,0,0,0,0,0,0,0,0,0,0,0,0,0,0,0,0,0,0,0,0,0,0,0,0,0,0v0.3h0Zm-0.31.64v-0.64h0.31v0.64l-0.15.14-0.15-.14h0Zm0.31,0v0.14h-0.15l0.15-.14h0Zm-1.72-.14h1.57v0.29h-1.57l-0.15-.14,0.15-.14h0Zm0,0.29h-0.15v-0.14l0.15,0.14h0Zm0.15-.78v0.64h-0.31v-0.64h0.31Zm0.63-.88v0.29h-0.33l0,0,0,0,0,0,0,0,0,0,0,0,0,0,0,0,0,0,0,0,0,0v0.28h-0.31v-0.3l0,0,0,0,0,0,0,0,0,0,0,0,0,0,0,0,0,0,0,0,0,0,0,0,0,0,0,0,0,0,0,0,0,0,0,0h0.32Z" transform="translate(-2000.68 -270.14)"/><path class="cls-2" d="M2018.89,271l-0.13.17h0.13Zm0.27,0.49h-0.4l0.13-.17h0.18v0.31h0Zm-0.22.43V271.5h0.22v0.43h-0.22Zm0,0h0Z" transform="translate(-2000.68 -270.14)"/><path class="cls-1" d="M2019.4,272.46a0.17,0.17,0,0,1,.15.16h0a0.17,0.17,0,0,1-.18.17h-1.71a0.17,0.17,0,0,1-.18-0.17h0a0.17,0.17,0,0,1,.15-0.16,0.1,0.1,0,0,1,0,0h0a0.11,0.11,0,0,1,.11-0.1h1.57a0.11,0.11,0,0,1,.11.1h0A0.09,0.09,0,0,1,2019.4,272.46Z" transform="translate(-2000.68 -270.14)"/><path class="cls-2" d="M2019.7,272.62h-0.33l0.05-.28h0.28Zm-0.15,0h0Zm-0.18.31v-0.29h0.33v0.06h0v0h-0.32Zm-1.71-.29h1.71v0.29h-1.71v-0.29h0Zm-0.33,0h0.33v0.29h-0.32v0h0v-0.06h0Zm0.15,0h0Zm0-.11,0.28-.11-0.12.2h-0.05l-0.12.2h0Zm0.28-.11,0.08,0.17-0.19,0,0.12-.2h0Zm-0.3,0h0.3l-0.28.11h0Zm0.15,0h0Zm0.11-.25v0.29h0Zm1.57,0.29h-1.57v-0.29h1.57v0.29h0Zm0.26,0h-0.26v-0.29h0.26Zm-0.15,0h0Zm0-.1-0.05.28-0.12-.2h0.28l-0.12-.2h0Zm-0.05.28-0.19,0,0.08-.17Z" transform="translate(-2000.68 -270.14)"/><path class="cls-1" d="M2017.67,271.16l-0.35-.19a0.12,0.12,0,0,1,0-.16h0a0.13,0.13,0,0,1,.17,0l0.36,0.19A0.84,0.84,0,0,0,2017.67,271.16Z" transform="translate(-2000.68 -270.14)"/><path class="cls-1" d="M2018,270.82l-0.21-.34a0.12,0.12,0,0,1,0-.16h0a0.13,0.13,0,0,1,.17,0l0.21,0.34A0.92,0.92,0,0,0,2018,270.82Z" transform="translate(-2000.68 -270.14)"/><path class="cls-1" d="M2018.39,270.65v-0.39a0.12,0.12,0,0,1,.13-0.12h0a0.12,0.12,0,0,1,.13.12v0.39h-0.25Z" transform="translate(-2000.68 -270.14)"/><path class="cls-1" d="M2018.85,270.7l0.21-.34a0.13,0.13,0,0,1,.17,0h0a0.12,0.12,0,0,1,0,.16l-0.21.34A0.93,0.93,0,0,0,2018.85,270.7Z" transform="translate(-2000.68 -270.14)"/><path class="cls-1" d="M2019.22,271l0.36-.19a0.13,0.13,0,0,1,.17,0h0a0.12,0.12,0,0,1,0,.16l-0.35.19A0.84,0.84,0,0,0,2019.22,271Z" transform="translate(-2000.68 -270.14)"/><path class="cls-1" d="M2019.42,271.36h0.4a0.12,0.12,0,0,1,.13.12h0a0.12,0.12,0,0,1-.13.12h-0.4a0.85,0.85,0,0,0,0-.1A0.8,0.8,0,0,0,2019.42,271.36Z" transform="translate(-2000.68 -270.14)"/><path class="cls-1" d="M2017.08,271.48h0a0.12,0.12,0,0,1,.13-0.12h0.4a0.82,0.82,0,0,0,0,.14,0.79,0.79,0,0,0,0,.1h-0.4A0.12,0.12,0,0,1,2017.08,271.48Z" transform="translate(-2000.68 -270.14)"/></svg>