<svg id="Layer_1" data-name="Layer 1" xmlns="http://www.w3.org/2000/svg" viewBox="0 0 16.43 17.49"><defs><style>.cls-1{fill:#00c8e6;fill-rule:evenodd;}</style></defs><title>police</title><path class="cls-1" d="M2004.91,170l8.05-2.23,8.38,2.23-0.23,7c-0.1,2.88-3.47,8.31-8,8.31h0c-4.51,0-7.88-5.43-8-8.31l-0.23-7h0Zm8.42,2.52a0.7,0.7,0,1,0-.41,0l-0.91,2.91h-2.93a0.7,0.7,0,1,0-.08.47l2.32,1.72-0.9,2.82-0.19,0a0.7,0.7,0,1,0,.58.3l2.33-1.75,2.31,1.73a0.7,0.7,0,1,0,.57-0.29l-0.17,0-0.9-2.81,2.35-1.75a0.7,0.7,0,1,0-.07-0.45h-3Z" transform="translate(-2004.91 -167.75)"/></svg>